{"title":"The.Neverending.Story.1984.720p.Bluray.x264.anoXmous","uid":6912989,"size":733365533,"categoryP":"video","categoryS":"hd___movies","magnet":"?xt=urn:btih:db7aae0f134b7efd9281fd8da73804ecedeb4bfc&amp;dn=The.Neverending.Story.1984.720p.Bluray.x264.anoXmous&amp;tr=udp%3A%2F%2Ftracker.openbittorrent.com%3A80&amp;tr=udp%3A%2F%2Fopen.demonii.com%3A1337&amp;tr=udp%3A%2F%2Ftracker.coppersurfer.tk%3A6969&amp;tr=udp%3A%2F%2Fexodus.desync.com%3A6969","seeders":49,"leechers":0,"uploader":"anoXmous","files":-1,"time":1324913838,"description":"The.Neverending.Story.1984.720p.Bluray.x264.anoXmous\n\nFormat                           : MPEG-4\nFormat profile                   : Base Media\nCodec ID                         : isom\nFile size                        : 699 MiB\nDuration                         : 1h 33mn\nOverall bit rate mode            : Variable\nOverall bit rate                 : 1 041 Kbps\n\n\nVideo\nID                               : 1\nFormat                           : AVC\nFormat/Info                      : Advanced Video Codec\nFormat profile                   : &lt;a class=&quot;__cf_email__&quot; href=&quot;/cdn-cgi/l/email-protection&quot; data-cfemail=&quot;e1a9888689a1add5cfd0&quot;&gt;[email&amp;#160;protected]&lt;/a&gt;&lt;script cf-hash='f9e31' type=&quot;text/javascript&quot;&gt;\n/* &lt;![CDATA[ */!function(){try{var t=&quot;currentScript&quot;in document?document.currentScript:function(){for(var t=document.getElementsByTagName(&quot;script&quot;),e=t.length;e--;)if(t[e].getAttribute(&quot;cf-hash&quot;))return t[e]}();if(t&amp;&amp;t.previousSibling){var e,r,n,i,c=t.previousSibling,a=c.getAttribute(&quot;data-cfemail&quot;);if(a){for(e=&quot;&quot;,r=parseInt(a.substr(0,2),16),n=2;a.length-n;n+=2)i=parseInt(a.substr(n,2),16)^r,e+=String.fromCharCode(i);e=document.createTextNode(e),c.parentNode.replaceChild(e,c)}}}catch(u){}}();/* ]]&gt; */&lt;/script&gt;\nFormat settings, CABAC           : Yes\nFormat settings, ReFrames        : 4 frames\nCodec ID                         : avc1\nCodec ID/Info                    : Advanced Video Coding\nDuration                         : 1h 33mn\nBit rate                         : 966 Kbps\nMaximum bit rate                 : 4 227 Kbps\nWidth                            : 1 280 pixels\nHeight                           : 544 pixels\nDisplay aspect ratio             : 2.35:1\nOriginal display aspect ratio    : 2.35:1\nFrame rate mode                  : Constant\nFrame rate                       : 23.976 fps\nColor space                      : YUV\nChroma subsampling               : 4:2:0\nBit depth                        : 8 bits\nScan type                        : Progressive\nBits/(Pixel*Frame)               : 0.058\nStream size                      : 649 MiB (93%)\nWriting library                  : x264 core 120 r2120 0c7dab9\n\n\nAudio\nID                               : 2\nFormat                           : AAC\nFormat/Info                      : Advanced Audio Codec\nFormat profile                   : LC\nCodec ID                         : 40\nDuration                         : 1h 33mn\nBit rate mode                    : Variable\nBit rate                         : 72.0 Kbps\nMaximum bit rate                 : 90.5 Kbps\nChannel(s)                       : 2 channels\nChannel positions                : Front: L R\nSampling rate                    : 48.0 KHz \nCompression mode                 : Lossy\nStream size                      : 48.4 MiB (7%)\nLanguage                         : English\n\n                              SUB:\nThe.Neverending.Story.1984.720p.Bluray.x264.anoXmous.mp4_swe.srt\n\n           &lt;a href=&quot; http://www.imdb.com/title/tt0088323/&quot; rel=&quot;nofollow&quot; target=&quot;_NEW&quot;&gt; http://www.imdb.com/title/tt0088323/&lt;/a&gt;\n\n   +++++++++ This work very fine with PSP and XBOX :) ++++++++++\n","torrent":{"xt":"urn:btih:db7aae0f134b7efd9281fd8da73804ecedeb4bfc","amp;dn":"The.Neverending.Story.1984.720p.Bluray.x264.anoXmous","amp;tr":["udp%3A%2F%2Ftracker.openbittorrent.com%3A80","udp%3A%2F%2Fopen.demonii.com%3A1337","udp%3A%2F%2Ftracker.coppersurfer.tk%3A6969","udp%3A%2F%2Fexodus.desync.com%3A6969"],"infoHash":"db7aae0f134b7efd9281fd8da73804ecedeb4bfc","infoHashBuffer":{"type":"Buffer","data":[219,122,174,15,19,75,126,253,146,129,253,141,167,56,4,236,237,235,75,252]},"announce":[],"urlList":[]}}